<mxfile host="app.diagrams.net" modified="2023-05-09T18:02:18.473Z" agent="Mozilla/5.0 (Windows NT 10.0; Win64; x64) AppleWebKit/537.36 (KHTML, like Gecko) Chrome/112.0.0.0 Safari/537.36" etag="B6C2_PAAMU7ceV-vX5uK" version="21.2.9" type="github">
  <diagram id="6a731a19-8d31-9384-78a2-239565b7b9f0" name="Page-1">
    <mxGraphModel dx="1222" dy="1056" grid="1" gridSize="10" guides="1" tooltips="1" connect="1" arrows="1" fold="1" page="1" pageScale="1" pageWidth="827" pageHeight="1169" background="none" math="0" shadow="0">
      <root>
        <mxCell id="0" />
        <mxCell id="1" parent="0" />
        <mxCell id="980" value="" style="ellipse;whiteSpace=wrap;html=1;fontFamily=Verdana;fontSize=16;fontColor=#DDDDDD;strokeColor=none;fillColor=#282828;" parent="1" vertex="1">
          <mxGeometry x="896" y="271" width="350" height="350" as="geometry" />
        </mxCell>
        <mxCell id="981" value="" style="ellipse;whiteSpace=wrap;html=1;fontFamily=Verdana;fontSize=16;fontColor=#DDDDDD;strokeColor=none;fillColor=#282828;" parent="1" vertex="1">
          <mxGeometry x="896" y="764" width="350" height="350" as="geometry" />
        </mxCell>
        <mxCell id="982" value="" style="ellipse;whiteSpace=wrap;html=1;fontFamily=Verdana;fontSize=16;fontColor=#DDDDDD;strokeColor=none;fillColor=#282828;" parent="1" vertex="1">
          <mxGeometry x="896" y="1256" width="350" height="350" as="geometry" />
        </mxCell>
        <mxCell id="983" value="" style="ellipse;whiteSpace=wrap;html=1;fontFamily=Verdana;fontSize=16;fontColor=#DDDDDD;strokeColor=none;fillColor=#282828;" parent="1" vertex="1">
          <mxGeometry x="1223" y="1010" width="350" height="350" as="geometry" />
        </mxCell>
        <mxCell id="984" value="" style="ellipse;whiteSpace=wrap;html=1;fontFamily=Verdana;fontSize=16;fontColor=#DDDDDD;strokeColor=none;fillColor=#282828;" parent="1" vertex="1">
          <mxGeometry x="1223" y="518" width="350" height="350" as="geometry" />
        </mxCell>
        <mxCell id="985" value="Мера стоимости" style="text;html=1;resizable=0;points=[];autosize=1;align=left;verticalAlign=top;spacingTop=-4;fontSize=22;fontFamily=Verdana;fontColor=#DDDDDD;fontStyle=1" parent="1" vertex="1">
          <mxGeometry x="948.9999999999999" y="386" width="230" height="30" as="geometry" />
        </mxCell>
        <mxCell id="986" value="1&amp;nbsp;" style="text;html=1;resizable=0;points=[];autosize=1;align=left;verticalAlign=top;spacingTop=-4;fontSize=100;fontFamily=Verdana;fontColor=#F18808;fontStyle=1" parent="1" vertex="1">
          <mxGeometry x="873" y="309" width="110" height="120" as="geometry" />
        </mxCell>
        <mxCell id="987" value="2" style="text;html=1;resizable=0;points=[];autosize=1;align=left;verticalAlign=top;spacingTop=-4;fontSize=100;fontFamily=Verdana;fontColor=#F18808;fontStyle=1" parent="1" vertex="1">
          <mxGeometry x="1194" y="531" width="74" height="120" as="geometry" />
        </mxCell>
        <mxCell id="988" value="3" style="text;html=1;resizable=0;points=[];autosize=1;align=left;verticalAlign=top;spacingTop=-4;fontSize=100;fontFamily=Verdana;fontColor=#F18808;fontStyle=1" parent="1" vertex="1">
          <mxGeometry x="875" y="799" width="74" height="120" as="geometry" />
        </mxCell>
        <mxCell id="989" value="4" style="text;html=1;resizable=0;points=[];autosize=1;align=left;verticalAlign=top;spacingTop=-4;fontSize=100;fontFamily=Verdana;fontColor=#F18808;fontStyle=1" parent="1" vertex="1">
          <mxGeometry x="1199" y="1029" width="74" height="120" as="geometry" />
        </mxCell>
        <mxCell id="990" value="5" style="text;html=1;resizable=0;points=[];autosize=1;align=left;verticalAlign=top;spacingTop=-4;fontSize=100;fontFamily=Verdana;fontColor=#F18808;fontStyle=1" parent="1" vertex="1">
          <mxGeometry x="874" y="1251" width="74" height="120" as="geometry" />
        </mxCell>
        <mxCell id="994" value="&lt;div style=&quot;line-height: 150%; font-size: 22px;&quot;&gt;Средство платежа&lt;/div&gt;" style="text;html=1;resizable=0;points=[];autosize=1;align=left;verticalAlign=top;spacingTop=-4;fontSize=22;fontFamily=Verdana;fontColor=#DDDDDD;fontStyle=1" parent="1" vertex="1">
          <mxGeometry x="1275" y="604" width="260" height="40" as="geometry" />
        </mxCell>
        <mxCell id="995" value="Средство обращения" style="text;html=1;resizable=0;points=[];autosize=1;align=left;verticalAlign=top;spacingTop=-4;fontSize=22;fontFamily=Verdana;fontColor=#DDDDDD;fontStyle=1" parent="1" vertex="1">
          <mxGeometry x="948.9999999999999" y="875" width="290" height="30" as="geometry" />
        </mxCell>
        <mxCell id="996" value="&lt;div style=&quot;line-height: 150%&quot;&gt;&lt;font style=&quot;font-size: 22px;&quot;&gt;Средство накопления&lt;/font&gt;&lt;/div&gt;" style="text;html=1;resizable=0;points=[];autosize=1;align=left;verticalAlign=top;spacingTop=-4;fontSize=24;fontFamily=Verdana;fontColor=#DDDDDD;fontStyle=1" parent="1" vertex="1">
          <mxGeometry x="1275" y="1102" width="300" height="40" as="geometry" />
        </mxCell>
        <mxCell id="997" value="&lt;div style=&quot;line-height: 150%&quot;&gt;Мировые деньги&lt;/div&gt;" style="text;html=1;resizable=0;points=[];autosize=1;align=left;verticalAlign=top;spacingTop=-4;fontSize=24;fontFamily=Verdana;fontColor=#DDDDDD;fontStyle=1" parent="1" vertex="1">
          <mxGeometry x="948.9999999999999" y="1324" width="260" height="40" as="geometry" />
        </mxCell>
        <mxCell id="998" value="Свойство измерять стоимость&lt;br&gt;всех товаров" style="text;html=1;resizable=0;points=[];autosize=1;align=left;verticalAlign=top;spacingTop=-4;fontSize=16;fontColor=#888888;fontFamily=Verdana;" parent="1" vertex="1">
          <mxGeometry x="949" y="430" width="270" height="50" as="geometry" />
        </mxCell>
        <mxCell id="999" value="&lt;div&gt;Покупка товара с отсрочкой&lt;/div&gt;&lt;div&gt;платежа&lt;/div&gt;" style="text;html=1;resizable=0;points=[];autosize=1;align=left;verticalAlign=top;spacingTop=-4;fontSize=16;fontColor=#888888;fontFamily=Verdana;" parent="1" vertex="1">
          <mxGeometry x="1273" y="658" width="260" height="50" as="geometry" />
        </mxCell>
        <mxCell id="1002" value="Деньги участвуют в процессе&lt;br&gt;обмена товарами" style="text;html=1;resizable=0;points=[];autosize=1;align=left;verticalAlign=top;spacingTop=-4;fontSize=16;fontColor=#888888;fontFamily=Verdana;" parent="1" vertex="1">
          <mxGeometry x="949" y="919" width="270" height="50" as="geometry" />
        </mxCell>
        <mxCell id="1003" value="&lt;div style=&quot;border-color: var(--border-color);&quot;&gt;Сохранение стоимости на&lt;/div&gt;&lt;div style=&quot;border-color: var(--border-color);&quot;&gt;достаточно продолжительный&lt;/div&gt;&lt;div style=&quot;border-color: var(--border-color);&quot;&gt;период времени&lt;/div&gt;" style="text;html=1;resizable=0;points=[];autosize=1;align=left;verticalAlign=top;spacingTop=-4;fontSize=16;fontColor=#888888;fontFamily=Verdana;" parent="1" vertex="1">
          <mxGeometry x="1275" y="1170" width="270" height="70" as="geometry" />
        </mxCell>
        <mxCell id="1004" value="Всеобщее платежное средство" style="text;html=1;resizable=0;points=[];autosize=1;align=left;verticalAlign=top;spacingTop=-4;fontSize=16;fontColor=#888888;fontFamily=Verdana;" parent="1" vertex="1">
          <mxGeometry x="949" y="1393" width="280" height="30" as="geometry" />
        </mxCell>
        <mxCell id="1011" value="" style="endArrow=none;html=1;strokeColor=#666666;fontFamily=Verdana;fontSize=16;fontColor=#DDDDDD;endFill=0;rounded=1;endSize=6;startArrow=none;startFill=0;strokeWidth=2;dashed=1;dashPattern=1 1;" parent="1" edge="1">
          <mxGeometry x="1066" y="444" width="50" height="50" as="geometry">
            <mxPoint x="1329" y="898" as="sourcePoint" />
            <mxPoint x="1329" y="839" as="targetPoint" />
          </mxGeometry>
        </mxCell>
        <mxCell id="1036" value="" style="whiteSpace=wrap;html=1;dashed=1;strokeColor=none;strokeWidth=1;fillColor=#282828;fontFamily=Verdana;fontSize=16;fontColor=#DDDDDD;" parent="1" vertex="1">
          <mxGeometry x="1235" y="1415" width="8" height="8" as="geometry" />
        </mxCell>
        <mxCell id="1038" value="" style="whiteSpace=wrap;html=1;dashed=1;strokeColor=none;strokeWidth=1;fillColor=#282828;fontFamily=Verdana;fontSize=16;fontColor=#DDDDDD;" parent="1" vertex="1">
          <mxGeometry x="1235" y="1426" width="8" height="8" as="geometry" />
        </mxCell>
        <mxCell id="1039" value="" style="whiteSpace=wrap;html=1;dashed=1;strokeColor=none;strokeWidth=1;fillColor=#282828;fontFamily=Verdana;fontSize=16;fontColor=#DDDDDD;" parent="1" vertex="1">
          <mxGeometry x="1235" y="1437" width="8" height="8" as="geometry" />
        </mxCell>
        <mxCell id="1045" value="" style="endArrow=none;html=1;strokeColor=#282828;strokeWidth=3;fontFamily=Verdana;fontSize=16;fontColor=#DDDDDD;endFill=0;" parent="1" edge="1">
          <mxGeometry x="1223" y="392" width="50" height="50" as="geometry">
            <mxPoint x="1222" y="392" as="sourcePoint" />
            <mxPoint x="1234" y="392" as="targetPoint" />
          </mxGeometry>
        </mxCell>
        <mxCell id="1051" value="" style="ellipse;whiteSpace=wrap;html=1;dashed=1;strokeColor=none;strokeWidth=1;fillColor=#282828;fontFamily=Verdana;fontSize=16;fontColor=#DDDDDD;" parent="1" vertex="1">
          <mxGeometry x="1228" y="1203" width="5" height="5" as="geometry" />
        </mxCell>
        <mxCell id="1056" value="" style="endArrow=none;html=1;strokeColor=#282828;strokeWidth=1;fontFamily=Verdana;fontSize=16;fontColor=#DDDDDD;endFill=0;" parent="1" edge="1">
          <mxGeometry width="50" height="50" relative="1" as="geometry">
            <mxPoint x="1223" y="1193" as="sourcePoint" />
            <mxPoint x="1223.2399355124335" y="1201.1578074227382" as="targetPoint" />
          </mxGeometry>
        </mxCell>
        <mxCell id="1058" value="" style="endArrow=none;html=1;strokeColor=#282828;strokeWidth=1;fontFamily=Verdana;fontSize=16;fontColor=#DDDDDD;endFill=0;" parent="1" edge="1">
          <mxGeometry width="50" height="50" relative="1" as="geometry">
            <mxPoint x="1231" y="1214" as="sourcePoint" />
            <mxPoint x="1237" y="1218" as="targetPoint" />
          </mxGeometry>
        </mxCell>
      </root>
    </mxGraphModel>
  </diagram>
</mxfile>
